<?xml version="1.0" encoding="iso-8859-1"?>
<!-- Generator: Adobe Illustrator 16.0.0, SVG Export Plug-In . SVG Version: 6.00 Build 0)  -->
<!DOCTYPE svg PUBLIC "-//W3C//DTD SVG 1.1//EN" "http://www.w3.org/Graphics/SVG/1.1/DTD/svg11.dtd">
<svg version="1.1" id="Capa_1" xmlns="http://www.w3.org/2000/svg" xmlns:xlink="http://www.w3.org/1999/xlink" x="0px" y="0px"
	 width="34.559px" height="34.559px" viewBox="0 0 34.559 34.559" style="enable-background:new 0 0 34.559 34.559;"
	 xml:space="preserve">
<g>
	<path d="M16.967,24.058l2.354,1.119c1.025,0.485,1.863,1.685,1.863,2.658v2.62H7.142v-2.62c0-0.976,0.838-2.173,1.862-2.658
		l2.281-1.082l1.583,3.298l0.811-2.195c0.158,0.029,0.317,0.07,0.483,0.07s0.324-0.041,0.484-0.07l0.769,2.088L16.967,24.058z
		 M14.164,24.058c2.003,0,3.628-2.491,3.628-4.778c0-2.287-1.625-3.5-3.628-3.5c-2.004,0-3.627,1.213-3.627,3.5
		C10.536,21.566,12.16,24.058,14.164,24.058z M24.792,7.373v26.186c0,0.555-0.449,1-1,1H4.396c-0.553,0-1-0.445-1-1V7.373
		c0-0.553,0.447-1,1-1h19.396C24.343,6.373,24.792,6.82,24.792,7.373z M22.792,13.914h-4.543c-0.552,0-1-0.447-1-1V8.373H5.396
		v24.186h17.396V13.914z M27.115,3.049H7.719c-0.553,0-1,0.446-1,1c0,0.553,0.447,1,1,1h18.396v25.186c0,0.553,0.448,1,1,1
		s1-0.447,1-1V4.049C28.115,3.495,27.667,3.049,27.115,3.049z M30.163,0H10.767c-0.553,0-1,0.447-1,1c0,0.553,0.447,1,1,1h18.396
		v25.188c0,0.553,0.448,1,1,1c0.553,0,1-0.447,1-1V1C31.163,0.447,30.716,0,30.163,0z"/>
</g>
<g>
</g>
<g>
</g>
<g>
</g>
<g>
</g>
<g>
</g>
<g>
</g>
<g>
</g>
<g>
</g>
<g>
</g>
<g>
</g>
<g>
</g>
<g>
</g>
<g>
</g>
<g>
</g>
<g>
</g>
</svg>
